# xmcd CD database file
#
# Track frame offsets:
#	150
#	17806
#	39649
#
# Disc length: 763 seconds
#
# Revision: 0
# Processed by: cddbd v1.5.1PL0 Copyright (c) Steve Scherf et al.
# Submitted via: CDex 1.51
#
DISCID=1d02f903
DTITLE=Rune - FifthAile Original MAXI Single
DYEAR=2004
DGENRE=Game
TTITLE0=虹の彼方へ…
TTITLE1=コノソラノシタデ
TTITLE2=虹の彼方へ…(Inst ver.)
EXTD=YEAR: 2004
EXTT0=
EXTT1=
EXTT2=
PLAYORDER=
